<svg id="图层_1" data-name="图层 1" xmlns="http://www.w3.org/2000/svg" viewBox="0 0 1024 1024"><defs><style>.cls-1{fill:#231815;fill-rule:evenodd;}</style></defs><title>icon</title><path class="cls-1" d="M975.47,868.26,782.19,691.62c50.43-66.93,80.38-173.48,80.38-271.18C862.56,184.81,675.07,0,443.78,0S34.19,184.81,34.19,420.45,212.5,847.13,443.78,847.13c64.39,0,145.78-13.82,196.5-38.43L837,1009.39a48.33,48.33,0,0,0,69.25,0l69.25-70.56A50.57,50.57,0,0,0,975.47,868.26ZM449.15,678c-136.95,0-248-113.11-248-252.64s111-252.64,248-252.64,248,113.11,248,252.64S586.09,678,449.15,678Z"/></svg>