<svg id="图层_1" data-name="图层 1" xmlns="http://www.w3.org/2000/svg" viewBox="0 0 1024 1024"><defs><style>.cls-1{fill:#040000;fill-rule:evenodd;}</style></defs><title>+</title><path class="cls-1" d="M840,137.16H184A46.85,46.85,0,0,0,137.16,184V840A46.85,46.85,0,0,0,184,886.84H840A46.85,46.85,0,0,0,886.84,840V184A46.85,46.85,0,0,0,840,137.16ZM840,840H184V184H840Z"/><polygon class="cls-1" points="465.14 746.27 558.86 746.27 558.86 558.86 746.27 558.86 746.27 465.14 558.86 465.14 558.86 277.73 465.14 277.73 465.14 465.14 277.73 465.14 277.73 558.86 465.14 558.86 465.14 746.27"/></svg>